<svg xmlns="http://www.w3.org/2000/svg" width="1440" height="1010" viewBox="0 0 1440 1010" role="img" aria-labelledby="title desc"><title id="title">SuperPoint 推理、描述子匹配与几何验证流程</title><desc id="desc">上半图展示两张图分别通过同一 SuperPoint 的检测和描述分支：热力图经筛选得到关键点，按坐标采样并归一化描述子。下半图展示描述子匹配产生候选，RANSAC按单应模型保留几何一致内点。所有图像和连线均为示意。</desc><defs><marker id="657282" markerWidth="7" markerHeight="7" refX="6" refY="3.5" orient="auto"><path d="M0,0 L7,3.5 L0,7 Z" fill="#657282"/></marker><marker id="657282-start" markerWidth="7" markerHeight="7" refX="1" refY="3.5" orient="auto"><path d="M7,0 L0,3.5 L7,7 Z" fill="#657282"/></marker><marker id="306ba3" markerWidth="7" markerHeight="7" refX="6" refY="3.5" orient="auto"><path d="M0,0 L7,3.5 L0,7 Z" fill="#306ba3"/></marker><marker id="306ba3-start" markerWidth="7" markerHeight="7" refX="1" refY="3.5" orient="auto"><path d="M7,0 L0,3.5 L7,7 Z" fill="#306ba3"/></marker><marker id="c37a30" markerWidth="7" markerHeight="7" refX="6" refY="3.5" orient="auto"><path d="M0,0 L7,3.5 L0,7 Z" fill="#c37a30"/></marker><marker id="c37a30-start" markerWidth="7" markerHeight="7" refX="1" refY="3.5" orient="auto"><path d="M7,0 L0,3.5 L7,7 Z" fill="#c37a30"/></marker><marker id="288379" markerWidth="7" markerHeight="7" refX="6" refY="3.5" orient="auto"><path d="M0,0 L7,3.5 L0,7 Z" fill="#288379"/></marker><marker id="288379-start" markerWidth="7" markerHeight="7" refX="1" refY="3.5" orient="auto"><path d="M7,0 L0,3.5 L7,7 Z" fill="#288379"/></marker></defs><rect width="1440" height="1010" fill="white"/><g font-family="Noto Sans CJK SC,Microsoft YaHei,sans-serif"><text x="40" y="49" font-size="33" fill="#202a35" font-weight="650" text-anchor="start">从两张图像，到几何一致的对应点</text><text x="40" y="89" font-size="23" fill="#657282" font-weight="400" text-anchor="start">SuperPoint 提取局部特征；匹配器和几何验证继续完成对应关系。</text><path d="M40,110 L1400,110" fill="none" stroke="#cdd5de" stroke-width="1" /><text x="40" y="153" font-size="25" fill="#306ba3" font-weight="650" text-anchor="start">(a) 特征提取</text><text x="234" y="153" font-size="22" fill="#657282" font-weight="400" text-anchor="start">对图像 A、B 分别执行 · 使用相同网络权重</text><rect x="50" y="203" width="140" height="96" rx="2" fill="#eef1f4" stroke="#cad2db" /><polygon points="76.6,225.08 150.8,220.28 162.0,262.52 111.6,277.88 72.4,267.32" fill="#c3cbd4" stroke="#8b99aa" stroke-width="1.2"/><path d="M76.6,225.08 L111.6,277.88" fill="none" stroke="#a4aeba" stroke-width="1.2" /><path d="M72.4,267.32 L150.8,220.28" fill="none" stroke="#a4aeba" stroke-width="1.2" /><rect x="50" y="333" width="140" height="96" rx="2" fill="#eef1f4" stroke="#cad2db" /><polygon points="83.16181448882871,358.5343843698617 137.93241279069767,354.99418604651163 148.55067328136073,387.65060240963857 114.49467107681001,400.8280044101433 84.02443680794197,393.57273768613976" fill="#c3cbd4" stroke="#8b99aa" stroke-width="1.2"/><path d="M83.16181448882871,358.5343843698617 L114.49467107681001,400.8280044101433" fill="none" stroke="#a4aeba" stroke-width="1.2" /><path d="M84.02443680794197,393.57273768613976 L137.93241279069767,354.99418604651163" fill="none" stroke="#a4aeba" stroke-width="1.2" /><text x="120" y="193" font-size="19" fill="#657282" font-weight="400" text-anchor="middle">图像 A</text><text x="120" y="456" font-size="19" fill="#657282" font-weight="400" text-anchor="middle">图像 B</text><path d="M202,313 L255,313" fill="none" stroke="#657282" stroke-width="2.3" marker-end="url(#657282)"/><rect x="270" y="265" width="168" height="100" rx="3" fill="#f2f6fb" stroke="#91adc9" /><text x="354" y="307" font-size="25" fill="#306ba3" font-weight="650" text-anchor="middle">SuperPoint</text><text x="354" y="340" font-size="21" fill="#657282" font-weight="400" text-anchor="middle">共享编码器</text><polyline points="438,291 467,291 467,241 498,241" fill="none" stroke="#306ba3" stroke-width="2.3" marker-end="url(#306ba3)"/><polyline points="438,340 467,340 467,397 498,397" fill="none" stroke="#306ba3" stroke-width="2.3" marker-end="url(#306ba3)"/><text x="580" y="191" font-size="22" fill="#306ba3" font-weight="600" text-anchor="middle">检测热力图</text><rect x="505" y="204" width="150" height="92" rx="3" fill="#162b40" stroke="none" /><circle cx="533.5" cy="225.16" r="14" fill="#8fdccb" opacity="0.1"/><circle cx="533.5" cy="225.16" r="9" fill="#8fdccb" opacity="0.18"/><circle cx="533.5" cy="225.16" r="5" fill="#8fdccb" opacity="0.4"/><circle cx="533.5" cy="225.16" r="2.5" fill="#8fdccb" opacity="1"/><circle cx="613.0" cy="220.56" r="14" fill="#8fdccb" opacity="0.1"/><circle cx="613.0" cy="220.56" r="9" fill="#8fdccb" opacity="0.18"/><circle cx="613.0" cy="220.56" r="5" fill="#8fdccb" opacity="0.4"/><circle cx="613.0" cy="220.56" r="2.5" fill="#8fdccb" opacity="1"/><circle cx="625.0" cy="261.04" r="14" fill="#8fdccb" opacity="0.1"/><circle cx="625.0" cy="261.04" r="9" fill="#8fdccb" opacity="0.18"/><circle cx="625.0" cy="261.04" r="5" fill="#8fdccb" opacity="0.4"/><circle cx="625.0" cy="261.04" r="2.5" fill="#8fdccb" opacity="1"/><circle cx="571.0" cy="275.76" r="14" fill="#8fdccb" opacity="0.1"/><circle cx="571.0" cy="275.76" r="9" fill="#8fdccb" opacity="0.18"/><circle cx="571.0" cy="275.76" r="5" fill="#8fdccb" opacity="0.4"/><circle cx="571.0" cy="275.76" r="2.5" fill="#8fdccb" opacity="1"/><circle cx="529.0" cy="265.64" r="14" fill="#8fdccb" opacity="0.1"/><circle cx="529.0" cy="265.64" r="9" fill="#8fdccb" opacity="0.18"/><circle cx="529.0" cy="265.64" r="5" fill="#8fdccb" opacity="0.4"/><circle cx="529.0" cy="265.64" r="2.5" fill="#8fdccb" opacity="1"/><circle cx="581.5" cy="243.56" r="14" fill="#8fdccb" opacity="0.1"/><circle cx="581.5" cy="243.56" r="9" fill="#8fdccb" opacity="0.18"/><circle cx="581.5" cy="243.56" r="5" fill="#8fdccb" opacity="0.4"/><circle cx="581.5" cy="243.56" r="2.5" fill="#8fdccb" opacity="1"/><text x="580" y="332" font-size="22" fill="#306ba3" font-weight="600" text-anchor="middle">粗网格描述子</text><rect x="505" y="351" width="20" height="20" rx="0" fill="#a6c8dd" stroke="none" /><rect x="527" y="351" width="20" height="20" rx="0" fill="#7bb6b4" stroke="none" /><rect x="549" y="351" width="20" height="20" rx="0" fill="#a6c8dd" stroke="none" /><rect x="571" y="351" width="20" height="20" rx="0" fill="#7bb6b4" stroke="none" /><rect x="593" y="351" width="20" height="20" rx="0" fill="#a6c8dd" stroke="none" /><rect x="615" y="351" width="20" height="20" rx="0" fill="#7bb6b4" stroke="none" /><rect x="637" y="351" width="20" height="20" rx="0" fill="#a6c8dd" stroke="none" /><rect x="505" y="373" width="20" height="20" rx="0" fill="#d9bd90" stroke="none" /><rect x="527" y="373" width="20" height="20" rx="0" fill="#b4bacb" stroke="none" /><rect x="549" y="373" width="20" height="20" rx="0" fill="#d9bd90" stroke="none" /><rect x="571" y="373" width="20" height="20" rx="0" fill="#b4bacb" stroke="none" /><rect x="593" y="373" width="20" height="20" rx="0" fill="#d9bd90" stroke="none" /><rect x="615" y="373" width="20" height="20" rx="0" fill="#b4bacb" stroke="none" /><rect x="637" y="373" width="20" height="20" rx="0" fill="#d9bd90" stroke="none" /><rect x="505" y="395" width="20" height="20" rx="0" fill="#c7d8e3" stroke="none" /><rect x="527" y="395" width="20" height="20" rx="0" fill="#80a8c1" stroke="none" /><rect x="549" y="395" width="20" height="20" rx="0" fill="#c7d8e3" stroke="none" /><rect x="571" y="395" width="20" height="20" rx="0" fill="#80a8c1" stroke="none" /><rect x="593" y="395" width="20" height="20" rx="0" fill="#c7d8e3" stroke="none" /><rect x="615" y="395" width="20" height="20" rx="0" fill="#80a8c1" stroke="none" /><rect x="637" y="395" width="20" height="20" rx="0" fill="#c7d8e3" stroke="none" /><rect x="505" y="417" width="20" height="20" rx="0" fill="#a6c8dd" stroke="none" /><rect x="527" y="417" width="20" height="20" rx="0" fill="#7bb6b4" stroke="none" /><rect x="549" y="417" width="20" height="20" rx="0" fill="#a6c8dd" stroke="none" /><rect x="571" y="417" width="20" height="20" rx="0" fill="#7bb6b4" stroke="none" /><rect x="593" y="417" width="20" height="20" rx="0" fill="#a6c8dd" stroke="none" /><rect x="615" y="417" width="20" height="20" rx="0" fill="#7bb6b4" stroke="none" /><rect x="637" y="417" width="20" height="20" rx="0" fill="#a6c8dd" stroke="none" /><path d="M671,250 L715,250" fill="none" stroke="#306ba3" stroke-width="2.3" marker-end="url(#306ba3)"/><path d="M671,397 L715,397" fill="none" stroke="#306ba3" stroke-width="2.3" marker-end="url(#306ba3)"/><rect x="732" y="203" width="300" height="96" rx="3" fill="#fafbfd" stroke="#cbd6e0" /><text x="882" y="237" font-size="22" fill="#202a35" font-weight="550" text-anchor="middle">阈值 → NMS → 边界过滤</text><text x="882" y="275" font-size="21" fill="#657282" font-weight="400" text-anchor="middle">按需保留 Top-K 个关键点</text><path d="M884,300 L884,349" fill="none" stroke="#288379" stroke-width="2.3" marker-end="url(#288379)"/><text x="904" y="333" font-size="19" fill="#288379" font-weight="400" text-anchor="start">关键点坐标</text><rect x="732" y="352" width="300" height="91" rx="3" fill="#f2f8f6" stroke="#a9c6c0" /><text x="882" y="387" font-size="22" fill="#288379" font-weight="550" text-anchor="middle">按坐标插值采样描述子</text><g color="#657282" aria-label="$\ell_2$ 归一化"><svg x="837.459" y="406.93" width="20.201999999999998" height="17.22" viewBox="0 -670 962 820"><g stroke="currentColor" fill="currentColor" stroke-width="0" transform="scale(1,-1)"><g data-mml-node="math" data-latex="\ell_2"><g data-mml-node="msub" data-latex="\ell_2"><g data-mml-node="mi" data-latex="\ell"><path data-c="2113" d="M18 249L22 222C46 226 75 232 105 239C89 193 77 149 77 112C77 11 133-10 182-10C255-10 306 47 386 173L362 190C287 81 246 30 196 30C163 30 147 63 147 97C147 148 165 204 188 263C342 312 509 403 509 572C509 632 479 670 421 670C298 670 188 459 117 272C82 262 48 255 18 249M414 625C439 625 461 610 461 562C461 428 336 347 203 299L228 361C257 434 333 625 414 625Z"></path></g><g data-mml-node="mn" transform="translate(562,-150) scale(0.707)" data-latex="2"><path data-c="32" d="M464 160L435 160C412 100 399 79 346 79L207 79L137 76L137 81L269 206C375 313 432 382 432 471C432 576 353 644 240 644C143 644 75 588 44 491L68 481C105 556 149 579 214 579C291 579 339 531 339 456C339 351 289 288 190 186L38 34L38 0L432 0Z"></path></g></g></g></g></svg><text  y="421" font-size="21" fill="#657282" font-weight="400" x="857.661" text-anchor="start" xml:space="preserve"> 归一化</text></g><polyline points="1032,397 1080,397 1080,324 1109,324" fill="none" stroke="#288379" stroke-width="2.3" marker-end="url(#288379)"/><rect x="1123" y="235" width="270" height="175" rx="3" fill="#fafbfd" stroke="#cbd6e0" /><text x="1258" y="269" font-size="21" fill="#202a35" font-weight="600" text-anchor="middle">每张图的一组局部特征</text><g color="#288379" aria-label="$\{(x_i,y_i),s_i,\mathbf d_i\}$"><svg x="1197.7195" y="288.9535" width="120.56099999999999" height="19.6665" viewBox="0 -716.5 5741 936.5"><g stroke="currentColor" fill="currentColor" stroke-width="0" transform="scale(1,-1)"><g data-mml-node="math" data-latex="\{(x_i,y_i),s_i,\mathbf d_i\}"><g data-mml-node="mo" data-latex="\{" transform="translate(0 -19.5)"><path data-c="7B" d="M25 245C72 240 115 233 115 173C115 126 96 8 96-52C96-167 184-197 282-197L282-165C225-165 170-150 170-64C170-13 185 68 185 129C185 212 144 247 93 267L93 273C144 293 185 328 185 411C185 472 170 552 170 603C170 689 225 704 282 704L282 736C184 736 96 706 96 591C96 531 115 414 115 367C115 307 72 300 25 295Z"></path></g><g data-mml-node="mo" data-latex="(" transform="translate(327,0) translate(0 -20)"><path data-c="28" d="M45 270C45 47 150-112 311-196L327-170C181-71 127 66 127 270C127 474 181 611 327 710L311 736C150 652 45 493 45 270Z"></path></g><g data-mml-node="msub" data-latex="x_i" transform="translate(684,0)"><g data-mml-node="mi" data-latex="x"><path data-c="1D465" d="M315 298L312 298L300 349C286 403 267 447 243 475L228 475L89 459L89 429C89 429 104 432 120 432C186 433 203 406 230 322L258 231L186 126C147 70 129 69 125 69C108 69 84 82 62 82C38 82 23 60 23 40C23 15 38-9 81-9C141-9 174 38 206 90L270 194L274 194L299 93C313 28 335-10 381-10C449-10 491 58 520 102L499 118C472 82 453 62 427 62C396 62 376 99 348 191L327 259L388 356C405 384 419 398 442 398C455 398 478 388 494 388C521 388 540 411 540 435C540 463 528 479 490 479C431 479 391 430 364 382Z"></path></g><g data-mml-node="mi" transform="translate(592,-150) scale(0.707)" data-latex="i"><path data-c="1D456" d="M219 476L197 476L57 465L57 438C57 438 74 440 91 440C118 440 123 424 123 411C123 394 120 380 120 380L69 142C56 83 52 61 52 44C52 9 75-9 115-9C181-9 220 47 255 96L235 111C219 93 191 59 157 59C145 59 139 65 139 78C139 92 144 120 144 120M243 610C243 643 224 665 191 665C158 665 136 644 136 610C136 575 158 556 188 556C218 556 243 576 243 610Z"></path></g></g><g data-mml-node="mo" data-latex="," transform="translate(1519.7,0)"><path data-c="2C" d="M70-132C110-114 194-80 194 33C194 88 167 121 117 121C77 121 55 94 55 62C55 33 71 8 110 8C121 8 130 10 141 14C141-67 95-91 58-107Z"></path></g><g data-mml-node="msub" data-latex="y_i" transform="translate(1931.4,0)"><g data-mml-node="mi" data-latex="y"><path data-c="1D466" d="M251 325C239 405 232 437 210 475L195 475L53 464L53 435C53 435 74 437 88 437C149 437 154 388 161 343L220-9C192-52 112-165 93-165C71-165 60-112 22-112C-1-112-17-125-17-155C-17-192 18-220 60-220C136-220 197-112 289 15C341 87 398 173 452 268C484 322 496 367 496 406C496 449 470 482 433 482C404 482 389 464 389 443C389 405 438 377 438 351C438 327 429 303 405 264L290 79L284 79L275 179Z"></path></g><g data-mml-node="mi" transform="translate(543,-150) scale(0.707)" data-latex="i"><path data-c="1D456" d="M219 476L197 476L57 465L57 438C57 438 74 440 91 440C118 440 123 424 123 411C123 394 120 380 120 380L69 142C56 83 52 61 52 44C52 9 75-9 115-9C181-9 220 47 255 96L235 111C219 93 191 59 157 59C145 59 139 65 139 78C139 92 144 120 144 120M243 610C243 643 224 665 191 665C158 665 136 644 136 610C136 575 158 556 188 556C218 556 243 576 243 610Z"></path></g></g><g data-mml-node="mo" data-latex=")" transform="translate(2718.2,0) translate(0 -20)"><path data-c="29" d="M312 270C312 493 207 652 46 736L30 710C176 611 230 474 230 270C230 66 176-71 30-170L46-196C207-112 312 47 312 270Z"></path></g><g data-mml-node="mo" data-latex="," transform="translate(3075.2,0)"><path data-c="2C" d="M70-132C110-114 194-80 194 33C194 88 167 121 117 121C77 121 55 94 55 62C55 33 71 8 110 8C121 8 130 10 141 14C141-67 95-91 58-107Z"></path></g><g data-mml-node="msub" data-latex="s_i" transform="translate(3486.8,0)"><g data-mml-node="mi" data-latex="s"><path data-c="1D460" d="M378 479L359 479L333 452L330 452C318 459 281 479 228 479C137 479 92 425 92 357C92 295 139 260 180 221C218 185 254 150 254 96C254 44 222 23 176 23C108 23 82 69 72 156L47 156L21-11L43-11L67 16L70 16C84 10 122-11 185-11C298-11 337 55 337 113C337 177 301 214 258 260C214 307 163 343 163 385C163 414 184 449 236 449C295 449 328 400 331 323L355 323Z"></path></g><g data-mml-node="mi" transform="translate(419,-150) scale(0.707)" data-latex="i"><path data-c="1D456" d="M219 476L197 476L57 465L57 438C57 438 74 440 91 440C118 440 123 424 123 411C123 394 120 380 120 380L69 142C56 83 52 61 52 44C52 9 75-9 115-9C181-9 220 47 255 96L235 111C219 93 191 59 157 59C145 59 139 65 139 78C139 92 144 120 144 120M243 610C243 643 224 665 191 665C158 665 136 644 136 610C136 575 158 556 188 556C218 556 243 576 243 610Z"></path></g></g><g data-mml-node="mo" data-latex="," transform="translate(4149.6,0)"><path data-c="2C" d="M70-132C110-114 194-80 194 33C194 88 167 121 117 121C77 121 55 94 55 62C55 33 71 8 110 8C121 8 130 10 141 14C141-67 95-91 58-107Z"></path></g><g data-mml-node="msub" data-latex="\mathbf d_i" transform="translate(4561.2,0)"><g data-mml-node="TeXAtom" data-latex="\mathbf d" data-mjx-texclass="ORD"><g data-mml-node="mi" data-latex="d"><path data-c="1D41D" d="M199-10C265-10 315 26 353 59L357 59L357-5L392-5L571 12L571 53L550 53C513 53 498 63 498 114L498 706L442 706L282 671L282 628C282 628 301 629 311 629C349 629 355 621 355 577L355 463C321 480 287 485 255 485C129 485 28 406 28 222C28 94 84-10 199-10M263 73C210 73 183 126 183 252C183 372 214 426 265 426C320 426 346 387 355 351L355 109C322 86 302 73 263 73Z"></path></g></g><g data-mml-node="mi" transform="translate(609,-150) scale(0.707)" data-latex="i"><path data-c="1D456" d="M219 476L197 476L57 465L57 438C57 438 74 440 91 440C118 440 123 424 123 411C123 394 120 380 120 380L69 142C56 83 52 61 52 44C52 9 75-9 115-9C181-9 220 47 255 96L235 111C219 93 191 59 157 59C145 59 139 65 139 78C139 92 144 120 144 120M243 610C243 643 224 665 191 665C158 665 136 644 136 610C136 575 158 556 188 556C218 556 243 576 243 610Z"></path></g></g><g data-mml-node="mo" data-latex="\}" transform="translate(5414,0) translate(0 -19.5)"><path data-c="7D" d="M302 295C255 300 212 307 212 367C212 414 231 531 231 591C231 706 143 736 45 736L45 704C102 704 157 689 157 603C157 552 142 472 142 411C142 328 183 293 234 273L234 267C183 247 142 212 142 129C142 68 157-13 157-64C157-150 102-165 45-165L45-197C143-197 231-167 231-52C231 8 212 126 212 173C212 233 255 240 302 245Z"></path></g></g></g></svg></g><circle cx="1150" cy="329" r="4" fill="#306ba3" /><rect x="1166" y="322" width="22" height="13" rx="0" fill="#a6c8dd" stroke="none" /><rect x="1191" y="322" width="22" height="13" rx="0" fill="#80a8c1" stroke="none" /><rect x="1216" y="322" width="22" height="13" rx="0" fill="#d9bd90" stroke="none" /><rect x="1241" y="322" width="22" height="13" rx="0" fill="#7bb6b4" stroke="none" /><rect x="1266" y="322" width="22" height="13" rx="0" fill="#c7d8e3" stroke="none" /><rect x="1291" y="322" width="22" height="13" rx="0" fill="#b4bacb" stroke="none" /><rect x="1316" y="322" width="22" height="13" rx="0" fill="#a6c8dd" stroke="none" /><rect x="1341" y="322" width="22" height="13" rx="0" fill="#80a8c1" stroke="none" /><circle cx="1150" cy="353" r="4" fill="#306ba3" /><rect x="1166" y="346" width="22" height="13" rx="0" fill="#80a8c1" stroke="none" /><rect x="1191" y="346" width="22" height="13" rx="0" fill="#d9bd90" stroke="none" /><rect x="1216" y="346" width="22" height="13" rx="0" fill="#7bb6b4" stroke="none" /><rect x="1241" y="346" width="22" height="13" rx="0" fill="#c7d8e3" stroke="none" /><rect x="1266" y="346" width="22" height="13" rx="0" fill="#b4bacb" stroke="none" /><rect x="1291" y="346" width="22" height="13" rx="0" fill="#a6c8dd" stroke="none" /><rect x="1316" y="346" width="22" height="13" rx="0" fill="#80a8c1" stroke="none" /><rect x="1341" y="346" width="22" height="13" rx="0" fill="#d9bd90" stroke="none" /><circle cx="1150" cy="377" r="4" fill="#306ba3" /><rect x="1166" y="370" width="22" height="13" rx="0" fill="#d9bd90" stroke="none" /><rect x="1191" y="370" width="22" height="13" rx="0" fill="#7bb6b4" stroke="none" /><rect x="1216" y="370" width="22" height="13" rx="0" fill="#c7d8e3" stroke="none" /><rect x="1241" y="370" width="22" height="13" rx="0" fill="#b4bacb" stroke="none" /><rect x="1266" y="370" width="22" height="13" rx="0" fill="#a6c8dd" stroke="none" /><rect x="1291" y="370" width="22" height="13" rx="0" fill="#80a8c1" stroke="none" /><rect x="1316" y="370" width="22" height="13" rx="0" fill="#d9bd90" stroke="none" /><rect x="1341" y="370" width="22" height="13" rx="0" fill="#7bb6b4" stroke="none" /><g color="#657282" aria-label="$\mathbf d_i\in\mathbb R^{256}$"><svg x="1216.1008" y="419.7842" width="83.7984" height="20.500200000000003" viewBox="0 -819.8 3990.4 976.2"><g stroke="currentColor" fill="currentColor" stroke-width="0" transform="scale(1,-1)"><g data-mml-node="math" data-latex="\mathbf d_i\in\mathbb R^{256}"><g data-mml-node="msub" data-latex="\mathbf d_i"><g data-mml-node="TeXAtom" data-latex="\mathbf d" data-mjx-texclass="ORD"><g data-mml-node="mi" data-latex="d"><path data-c="1D41D" d="M199-10C265-10 315 26 353 59L357 59L357-5L392-5L571 12L571 53L550 53C513 53 498 63 498 114L498 706L442 706L282 671L282 628C282 628 301 629 311 629C349 629 355 621 355 577L355 463C321 480 287 485 255 485C129 485 28 406 28 222C28 94 84-10 199-10M263 73C210 73 183 126 183 252C183 372 214 426 265 426C320 426 346 387 355 351L355 109C322 86 302 73 263 73Z"></path></g></g><g data-mml-node="mi" transform="translate(609,-150) scale(0.707)" data-latex="i"><path data-c="1D456" d="M219 476L197 476L57 465L57 438C57 438 74 440 91 440C118 440 123 424 123 411C123 394 120 380 120 380L69 142C56 83 52 61 52 44C52 9 75-9 115-9C181-9 220 47 255 96L235 111C219 93 191 59 157 59C145 59 139 65 139 78C139 92 144 120 144 120M243 610C243 643 224 665 191 665C158 665 136 644 136 610C136 575 158 556 188 556C218 556 243 576 243 610Z"></path></g></g><g data-mml-node="mo" data-latex="\in" transform="translate(1130.5,0)"><path data-c="2208" d="M646 293L155 293C165 390 223 476 352 476L646 476L646 543L347 543C183 543 75 411 75 260C75 108 181-26 344-26L646-26L646 42L353 42C224 42 166 128 155 225L646 225Z"></path></g><g data-mml-node="msup" data-latex="\mathbb R^{256}" transform="translate(2128.3,0)"><g data-mml-node="TeXAtom" data-latex="\mathbb R" data-mjx-texclass="ORD"><g data-mml-node="mi" data-latex="R"><path data-c="211D" d="M503 0L708 0L493 285C570 310 625 365 625 465C625 609 511 657 400 657L72 657L72 0L236 0L236 268L310 268M445 612L445 314C425 311 405 309 385 309L236 309L236 615L397 615C413 615 429 614 445 612M115 615L193 615L193 42L115 42M448 274L623 42L525 42L362 268L375 268C400 268 424 270 448 274M578 466C578 389 539 348 488 327L488 601C540 581 578 541 578 466Z"></path></g></g><g data-mml-node="TeXAtom" transform="translate(762,363) scale(0.707)" data-latex="{256}" data-mjx-texclass="ORD"><g data-mml-node="mn" data-latex="256"><path data-c="32" d="M464 160L435 160C412 100 399 79 346 79L207 79L137 76L137 81L269 206C375 313 432 382 432 471C432 576 353 644 240 644C143 644 75 588 44 491L68 481C105 556 149 579 214 579C291 579 339 531 339 456C339 351 289 288 190 186L38 34L38 0L432 0Z"></path><path data-c="35" d="M417 549L433 630L159 630L97 369L109 354C123 354 128 354 154 352C292 345 370 304 370 179C370 75 307 37 236 37C172 37 139 86 99 86C74 86 59 66 59 43C59 6 97-13 174-13C333-13 443 65 443 219C443 376 320 423 202 432L155 435L182 549Z" transform="translate(495,0)"></path><path data-c="36" d="M415 646C200 637 45 498 45 257C45 110 110-12 259-12C385-12 457 67 457 203C457 334 386 413 277 413C225 413 188 391 147 351L140 352C165 498 277 596 417 617M370 195C370 68 330 23 263 23C176 23 135 112 135 236C135 323 189 355 247 355C330 355 370 285 370 195Z" transform="translate(990,0)"></path></g></g></g></g></g></svg></g><path d="M40,490 L1400,490" fill="none" stroke="#cdd5de" stroke-width="1" /><text x="40" y="532" font-size="25" fill="#288379" font-weight="650" text-anchor="start">(b) 匹配与验证</text><g color="#657282" aria-label="以下以平面场景的单应矩阵 $H$ 为例"><text  y="532" font-size="22" fill="#657282" font-weight="400" x="267" text-anchor="start" xml:space="preserve">以下以平面场景的单应矩阵 </text><svg x="537.16" y="517.546" width="17.71" height="14.454" viewBox="0 -657 805 657"><g stroke="currentColor" fill="currentColor" stroke-width="0" transform="scale(1,-1)"><g data-mml-node="math" data-latex="H"><g data-mml-node="mi" data-latex="H"><path data-c="1D43B" d="M275 525C293 603 296 627 388 627L393 657L118 657L112 627C199 627 203 605 186 525L104 131C86 42 72 30-7 30L-13 0L261 0L267 30C185 30 176 43 195 131L233 318L556 318L517 131C499 44 493 30 415 30L410 0L674 0L680 30C595 30 590 45 608 131L689 525C706 604 710 627 799 627L805 657L537 657L531 627C620 627 616 603 599 525L564 357L240 357Z"></path></g></g></g></svg><text  y="532" font-size="22" fill="#657282" font-weight="400" x="554.87" text-anchor="start" xml:space="preserve"> 为例</text></g><polyline points="1393,324 1420,324 1420,563 118,563 118,622" fill="none" stroke="#288379" stroke-width="2.3" marker-end="url(#288379)"/><rect x="42" y="638" width="156" height="129" rx="3" fill="#f2f8f6" stroke="#a9c6c0" /><text x="120" y="677" font-size="23" fill="#288379" font-weight="600" text-anchor="middle">两组特征</text><g color="#657282" aria-label="A：$K_A\times256$"><text  y="714" font-size="18" fill="#657282" font-weight="400" x="71.22899999999998" text-anchor="start" xml:space="preserve">A：</text><svg x="99.12899999999999" y="702.174" width="69.64200000000001" height="14.526000000000002" viewBox="0 -657 3869 807"><g stroke="currentColor" fill="currentColor" stroke-width="0" transform="scale(1,-1)"><g data-mml-node="math" data-latex="K_A\times256"><g data-mml-node="msub" data-latex="K_A"><g data-mml-node="mi" data-latex="K"><path data-c="1D43E" d="M104 131C86 45 76 30-7 30L-13 0L266 0L272 30C183 30 178 45 195 131L231 309L243 309L306 233C391 130 415 91 415 59C415 36 397 30 367 30L354 30L349 0L637 0L643 30C594 30 563 41 537 73L316 353L574 561C635 610 655 622 712 627L717 657L482 657L475 627L492 627C515 627 529 619 529 604C529 574 490 542 432 495L241 338L237 338L275 525C291 603 300 627 395 627L400 657L118 657L112 627C200 627 202 603 186 525Z"></path></g><g data-mml-node="mi" transform="translate(688,-150) scale(0.707)" data-latex="A"><path data-c="1D434" d="M642 0L648 30C588 30 574 53 561 119L482 661L440 661L94 160C19 46 0 30-55 30L-62 0L147 0L154 30C110 30 96 36 96 57C96 76 107 94 121 113L191 219L449 219L459 129C460 117 461 103 461 87C461 37 430 30 381 30L375 0M445 259L215 259L409 548L412 548Z"></path></g></g><g data-mml-node="mo" data-latex="\times" transform="translate(1441.8,0)"><path data-c="D7" d="M644 22L409 258L644 495L597 541L360 306L125 541L77 494L312 258L77 21L124-26L360 210L597-26Z"></path></g><g data-mml-node="mn" data-latex="256" transform="translate(2384,0)"><path data-c="32" d="M464 160L435 160C412 100 399 79 346 79L207 79L137 76L137 81L269 206C375 313 432 382 432 471C432 576 353 644 240 644C143 644 75 588 44 491L68 481C105 556 149 579 214 579C291 579 339 531 339 456C339 351 289 288 190 186L38 34L38 0L432 0Z"></path><path data-c="35" d="M417 549L433 630L159 630L97 369L109 354C123 354 128 354 154 352C292 345 370 304 370 179C370 75 307 37 236 37C172 37 139 86 99 86C74 86 59 66 59 43C59 6 97-13 174-13C333-13 443 65 443 219C443 376 320 423 202 432L155 435L182 549Z" transform="translate(495,0)"></path><path data-c="36" d="M415 646C200 637 45 498 45 257C45 110 110-12 259-12C385-12 457 67 457 203C457 334 386 413 277 413C225 413 188 391 147 351L140 352C165 498 277 596 417 617M370 195C370 68 330 23 263 23C176 23 135 112 135 236C135 323 189 355 247 355C330 355 370 285 370 195Z" transform="translate(990,0)"></path></g></g></g></svg></g><g color="#657282" aria-label="B：$K_B\times256$"><text  y="745" font-size="18" fill="#657282" font-weight="400" x="71.7888" text-anchor="start" xml:space="preserve">B：</text><svg x="99.6888" y="733.174" width="68.5224" height="14.526000000000002" viewBox="0 -657 3806.8 807"><g stroke="currentColor" fill="currentColor" stroke-width="0" transform="scale(1,-1)"><g data-mml-node="math" data-latex="K_B\times256"><g data-mml-node="msub" data-latex="K_B"><g data-mml-node="mi" data-latex="K"><path data-c="1D43E" d="M104 131C86 45 76 30-7 30L-13 0L266 0L272 30C183 30 178 45 195 131L231 309L243 309L306 233C391 130 415 91 415 59C415 36 397 30 367 30L354 30L349 0L637 0L643 30C594 30 563 41 537 73L316 353L574 561C635 610 655 622 712 627L717 657L482 657L475 627L492 627C515 627 529 619 529 604C529 574 490 542 432 495L241 338L237 338L275 525C291 603 300 627 395 627L400 657L118 657L112 627C200 627 202 603 186 525Z"></path></g><g data-mml-node="mi" transform="translate(688,-150) scale(0.707)" data-latex="B"><path data-c="1D435" d="M413 349C508 371 588 420 588 528C588 600 540 657 371 657L118 657L112 627C186 627 205 616 188 536L103 125C86 42 69 30-7 30L-13 0L275 0C432 0 556 73 556 207C556 291 491 333 413 344M233 322L292 322C376 322 453 296 453 204C453 56 328 36 237 36C212 36 199 37 176 39M241 362L293 616C314 618 323 619 343 619C455 619 489 575 489 521C489 422 437 362 299 362Z"></path></g></g><g data-mml-node="mo" data-latex="\times" transform="translate(1379.5,0)"><path data-c="D7" d="M644 22L409 258L644 495L597 541L360 306L125 541L77 494L312 258L77 21L124-26L360 210L597-26Z"></path></g><g data-mml-node="mn" data-latex="256" transform="translate(2321.8,0)"><path data-c="32" d="M464 160L435 160C412 100 399 79 346 79L207 79L137 76L137 81L269 206C375 313 432 382 432 471C432 576 353 644 240 644C143 644 75 588 44 491L68 481C105 556 149 579 214 579C291 579 339 531 339 456C339 351 289 288 190 186L38 34L38 0L432 0Z"></path><path data-c="35" d="M417 549L433 630L159 630L97 369L109 354C123 354 128 354 154 352C292 345 370 304 370 179C370 75 307 37 236 37C172 37 139 86 99 86C74 86 59 66 59 43C59 6 97-13 174-13C333-13 443 65 443 219C443 376 320 423 202 432L155 435L182 549Z" transform="translate(495,0)"></path><path data-c="36" d="M415 646C200 637 45 498 45 257C45 110 110-12 259-12C385-12 457 67 457 203C457 334 386 413 277 413C225 413 188 391 147 351L140 352C165 498 277 596 417 617M370 195C370 68 330 23 263 23C176 23 135 112 135 236C135 323 189 355 247 355C330 355 370 285 370 195Z" transform="translate(990,0)"></path></g></g></g></svg></g><path d="M201,701 L236,701" fill="none" stroke="#657282" stroke-width="2.3" marker-end="url(#657282)"/><rect x="251" y="638" width="174" height="129" rx="3" fill="#fafbfd" stroke="#cbd6e0" /><text x="338" y="677" font-size="23" fill="#202a35" font-weight="550" text-anchor="middle">描述子匹配</text><text x="338" y="714" font-size="21" fill="#657282" font-weight="400" text-anchor="middle">最近邻</text><text x="338" y="744" font-size="18" fill="#657282" font-weight="400" text-anchor="middle">可加双向一致性</text><path d="M429,701 L463,701" fill="none" stroke="#657282" stroke-width="2.3" marker-end="url(#657282)"/><text x="642" y="597" font-size="23" fill="#202a35" font-weight="600" text-anchor="middle">候选匹配</text><rect x="480" y="628" width="133.0" height="146" rx="2" fill="#eef1f4" stroke="#cad2db" /><polygon points="505.27,661.58 575.76,654.28 586.4,718.52 538.52,741.88 501.28,725.82" fill="#c3cbd4" stroke="#8b99aa" stroke-width="1.2"/><path d="M505.27,661.58 L538.52,741.88" fill="none" stroke="#a4aeba" stroke-width="1.2" /><path d="M501.28,725.82 L575.76,654.28" fill="none" stroke="#a4aeba" stroke-width="1.2" /><circle cx="505.27" cy="661.58" r="3.5" fill="#288379" /><circle cx="575.76" cy="654.28" r="3.5" fill="#288379" /><circle cx="586.4" cy="718.52" r="3.5" fill="#288379" /><circle cx="538.52" cy="741.88" r="3.5" fill="#288379" /><circle cx="501.28" cy="725.82" r="3.5" fill="#288379" /><circle cx="547.83" cy="690.78" r="3.5" fill="#288379" /><rect x="663.0" y="628" width="133.0" height="146" rx="2" fill="#eef1f4" stroke="#cad2db" /><polygon points="694.5037237643872,666.8335428958313 746.5357921511628,661.4494912790698 756.6231396172927,711.1144578313254 724.2699375229695,731.1550900404263 695.3232149675449,720.1210385643375" fill="#c3cbd4" stroke="#8b99aa" stroke-width="1.2"/><path d="M694.5037237643872,666.8335428958313 L724.2699375229695,731.1550900404263" fill="none" stroke="#a4aeba" stroke-width="1.2" /><path d="M695.3232149675449,720.1210385643375 L746.5357921511628,661.4494912790698" fill="none" stroke="#a4aeba" stroke-width="1.2" /><circle cx="694.5037237643872" cy="666.8335428958313" r="3.5" fill="#288379" /><circle cx="746.5357921511628" cy="661.4494912790698" r="3.5" fill="#288379" /><circle cx="756.6231396172927" cy="711.1144578313254" r="3.5" fill="#288379" /><circle cx="724.2699375229695" cy="731.1550900404263" r="3.5" fill="#288379" /><circle cx="695.3232149675449" cy="720.1210385643375" r="3.5" fill="#288379" /><circle cx="728.4136594370096" cy="690.4963544070143" r="3.5" fill="#288379" /><path d="M505.27,661.58 L694.5037237643872,666.8335428958313" fill="none" stroke="#288379" stroke-width="1.8" /><path d="M575.76,654.28 L746.5357921511628,661.4494912790698" fill="none" stroke="#288379" stroke-width="1.8" /><path d="M586.4,718.52 L756.6231396172927,711.1144578313254" fill="none" stroke="#288379" stroke-width="1.8" /><path d="M538.52,741.88 L724.2699375229695,731.1550900404263" fill="none" stroke="#288379" stroke-width="1.8" /><path d="M501.28,725.82 L756.6231396172927,711.1144578313254" fill="none" stroke="#c37a30" stroke-width="1.8" stroke-dasharray="5 4"/><path d="M547.83,690.78 L694.5037237643872,666.8335428958313" fill="none" stroke="#c37a30" stroke-width="1.8" stroke-dasharray="5 4"/><text x="546.5" y="798" font-size="18" fill="#657282" font-weight="400" text-anchor="middle">A</text><text x="729.5" y="798" font-size="18" fill="#657282" font-weight="400" text-anchor="middle">B</text><path d="M801,701 L835,701" fill="none" stroke="#657282" stroke-width="2.3" marker-end="url(#657282)"/><rect x="850" y="638" width="177" height="129" rx="3" fill="#f2f8f6" stroke="#a9c6c0" /><text x="938" y="677" font-size="24" fill="#288379" font-weight="650" text-anchor="middle">RANSAC</text><g color="#657282" aria-label="估计 $H$"><text  y="712" font-size="22" fill="#657282" font-weight="400" x="904.065" text-anchor="start" xml:space="preserve">估计 </text><svg x="954.225" y="697.546" width="17.71" height="14.454" viewBox="0 -657 805 657"><g stroke="currentColor" fill="currentColor" stroke-width="0" transform="scale(1,-1)"><g data-mml-node="math" data-latex="H"><g data-mml-node="mi" data-latex="H"><path data-c="1D43B" d="M275 525C293 603 296 627 388 627L393 657L118 657L112 627C199 627 203 605 186 525L104 131C86 42 72 30-7 30L-13 0L261 0L267 30C185 30 176 43 195 131L233 318L556 318L517 131C499 44 493 30 415 30L410 0L674 0L680 30C595 30 590 45 608 131L689 525C706 604 710 627 799 627L805 657L537 657L531 627C620 627 616 603 599 525L564 357L240 357Z"></path></g></g></g></svg></g><text x="938" y="744" font-size="18" fill="#657282" font-weight="400" text-anchor="middle">按几何误差验证</text><path d="M1031,701 L1063,701" fill="none" stroke="#657282" stroke-width="2.3" marker-end="url(#657282)"/><text x="1232" y="597" font-size="23" fill="#288379" font-weight="600" text-anchor="middle">几何一致的内点</text><rect x="1080" y="628" width="128.0" height="146" rx="2" fill="#eef1f4" stroke="#cad2db" /><polygon points="1104.32,661.58 1172.16,654.28 1182.4,718.52 1136.32,741.88 1100.48,725.82" fill="#c3cbd4" stroke="#8b99aa" stroke-width="1.2"/><path d="M1104.32,661.58 L1136.32,741.88" fill="none" stroke="#a4aeba" stroke-width="1.2" /><path d="M1100.48,725.82 L1172.16,654.28" fill="none" stroke="#a4aeba" stroke-width="1.2" /><circle cx="1104.32" cy="661.58" r="3.5" fill="#288379" /><circle cx="1172.16" cy="654.28" r="3.5" fill="#288379" /><circle cx="1182.4" cy="718.52" r="3.5" fill="#288379" /><circle cx="1136.32" cy="741.88" r="3.5" fill="#288379" /><circle cx="1100.48" cy="725.82" r="3.5" fill="#288379" /><circle cx="1145.28" cy="690.78" r="3.5" fill="#288379" /><rect x="1258.0" y="628" width="128.0" height="146" rx="2" fill="#eef1f4" stroke="#cad2db" /><polygon points="1288.319373246929,666.8335428958313 1338.3953488372092,661.4494912790698 1348.103472714387,711.1144578313254 1316.9665564130835,731.1550900404263 1289.1080565101183,720.1210385643375" fill="#c3cbd4" stroke="#8b99aa" stroke-width="1.2"/><path d="M1288.319373246929,666.8335428958313 L1316.9665564130835,731.1550900404263" fill="none" stroke="#a4aeba" stroke-width="1.2" /><path d="M1289.1080565101183,720.1210385643375 L1338.3953488372092,661.4494912790698" fill="none" stroke="#a4aeba" stroke-width="1.2" /><circle cx="1288.319373246929" cy="666.8335428958313" r="3.5" fill="#288379" /><circle cx="1338.3953488372092" cy="661.4494912790698" r="3.5" fill="#288379" /><circle cx="1348.103472714387" cy="711.1144578313254" r="3.5" fill="#288379" /><circle cx="1316.9665564130835" cy="731.1550900404263" r="3.5" fill="#288379" /><circle cx="1289.1080565101183" cy="720.1210385643375" r="3.5" fill="#288379" /><circle cx="1320.9544993077989" cy="690.4963544070143" r="3.5" fill="#288379" /><path d="M1104.32,661.58 L1288.319373246929,666.8335428958313" fill="none" stroke="#288379" stroke-width="1.8" /><path d="M1172.16,654.28 L1338.3953488372092,661.4494912790698" fill="none" stroke="#288379" stroke-width="1.8" /><path d="M1182.4,718.52 L1348.103472714387,711.1144578313254" fill="none" stroke="#288379" stroke-width="1.8" /><path d="M1136.32,741.88 L1316.9665564130835,731.1550900404263" fill="none" stroke="#288379" stroke-width="1.8" /><text x="1144.0" y="798" font-size="18" fill="#657282" font-weight="400" text-anchor="middle">A</text><text x="1322.0" y="798" font-size="18" fill="#657282" font-weight="400" text-anchor="middle">B</text><path d="M485,836 L525,836" fill="none" stroke="#288379" stroke-width="2" /><text x="539" y="844" font-size="19" fill="#657282" font-weight="400" text-anchor="start">内点示意</text><path d="M708,836 L748,836" fill="none" stroke="#c37a30" stroke-width="2" stroke-dasharray="5 4"/><text x="762" y="844" font-size="19" fill="#657282" font-weight="400" text-anchor="start">外点示意</text><text x="40" y="905" font-size="22" fill="#202a35" font-weight="650" text-anchor="start">分工边界</text><text x="180" y="905" font-size="23" fill="#202a35" font-weight="400" text-anchor="start">网络输出特征 → 匹配器提出对应 → 几何模型验证一致性</text><text x="40" y="945" font-size="21" fill="#657282" font-weight="400" text-anchor="start">图像、热力图、向量颜色与连线均为教学示意；绿色不表示算法预先知道真值。</text><g color="#657282" aria-label="一般三维场景需按任务选择基础矩阵、本质矩阵或 PnP，不能一概使用 $H$。"><text  y="978" font-size="21" fill="#657282" font-weight="400" x="40" text-anchor="start" xml:space="preserve">一般三维场景需按任务选择基础矩阵、本质矩阵或 PnP，不能一概使用 </text><svg x="695.4100000000001" y="964.203" width="16.905" height="13.797" viewBox="0 -657 805 657"><g stroke="currentColor" fill="currentColor" stroke-width="0" transform="scale(1,-1)"><g data-mml-node="math" data-latex="H"><g data-mml-node="mi" data-latex="H"><path data-c="1D43B" d="M275 525C293 603 296 627 388 627L393 657L118 657L112 627C199 627 203 605 186 525L104 131C86 42 72 30-7 30L-13 0L261 0L267 30C185 30 176 43 195 131L233 318L556 318L517 131C499 44 493 30 415 30L410 0L674 0L680 30C595 30 590 45 608 131L689 525C706 604 710 627 799 627L805 657L537 657L531 627C620 627 616 603 599 525L564 357L240 357Z"></path></g></g></g></svg><text  y="978" font-size="21" fill="#657282" font-weight="400" x="712.315" text-anchor="start" xml:space="preserve">。</text></g></g></svg>