<svg xmlns="http://www.w3.org/2000/svg" width="1000" height="500" viewBox="0 0 1000 500"><rect width="100%" height="100%" fill="white"/><defs><marker id="arr" markerWidth="8" markerHeight="8" refX="7" refY="4" orient="auto"><path d="M0,0 L7,4 L0,8" fill="context-stroke"/></marker></defs><text x="30" y="38" font-size="26" fill="#203047" text-anchor="start" font-family="Noto Sans CJK SC,sans-serif" xml:space="preserve">倒排索引：从词项直接找到包含它的文档</text><text x="40" y="82" font-size="23" fill="#2563a6" text-anchor="start" font-family="Noto Sans CJK SC,sans-serif" xml:space="preserve">文档内容</text><rect x="40" y="120" width="68" height="41" rx="3" fill="#2563a6" stroke="none" stroke-width="2"/><text x="50" y="148" font-size="19" fill="white" text-anchor="start" font-family="Noto Sans CJK SC,sans-serif" xml:space="preserve">ID</text><rect x="110" y="120" width="328" height="41" rx="3" fill="#2563a6" stroke="none" stroke-width="2"/><text x="120" y="148" font-size="19" fill="white" text-anchor="start" font-family="Noto Sans CJK SC,sans-serif" xml:space="preserve">词项</text><rect x="40" y="163" width="68" height="41" rx="3" fill="#edf2f7" stroke="none" stroke-width="2"/><text x="50" y="191" font-size="19" fill="#203047" text-anchor="start" font-family="Noto Sans CJK SC,sans-serif" xml:space="preserve">1</text><rect x="110" y="163" width="328" height="41" rx="3" fill="#edf2f7" stroke="none" stroke-width="2"/><text x="120" y="191" font-size="19" fill="#203047" text-anchor="start" font-family="Noto Sans CJK SC,sans-serif" xml:space="preserve">红色 相机</text><rect x="40" y="206" width="68" height="41" rx="3" fill="#edf2f7" stroke="none" stroke-width="2"/><text x="50" y="234" font-size="19" fill="#203047" text-anchor="start" font-family="Noto Sans CJK SC,sans-serif" xml:space="preserve">2</text><rect x="110" y="206" width="328" height="41" rx="3" fill="#edf2f7" stroke="none" stroke-width="2"/><text x="120" y="234" font-size="19" fill="#203047" text-anchor="start" font-family="Noto Sans CJK SC,sans-serif" xml:space="preserve">防水 灯具</text><rect x="40" y="249" width="68" height="41" rx="3" fill="#edf2f7" stroke="none" stroke-width="2"/><text x="50" y="277" font-size="19" fill="#203047" text-anchor="start" font-family="Noto Sans CJK SC,sans-serif" xml:space="preserve">3</text><rect x="110" y="249" width="328" height="41" rx="3" fill="#edf2f7" stroke="none" stroke-width="2"/><text x="120" y="277" font-size="19" fill="#203047" text-anchor="start" font-family="Noto Sans CJK SC,sans-serif" xml:space="preserve">防水 相机</text><rect x="40" y="292" width="68" height="41" rx="3" fill="#edf2f7" stroke="none" stroke-width="2"/><text x="50" y="320" font-size="19" fill="#203047" text-anchor="start" font-family="Noto Sans CJK SC,sans-serif" xml:space="preserve">4</text><rect x="110" y="292" width="328" height="41" rx="3" fill="#edf2f7" stroke="none" stroke-width="2"/><text x="120" y="320" font-size="19" fill="#203047" text-anchor="start" font-family="Noto Sans CJK SC,sans-serif" xml:space="preserve">便携 相机</text><text x="565" y="82" font-size="23" fill="#2563a6" text-anchor="start" font-family="Noto Sans CJK SC,sans-serif" xml:space="preserve">词项 → 有序文档列表</text><text x="565" y="159" font-size="24" fill="#2563a6" text-anchor="start" font-family="Noto Sans CJK SC,sans-serif" xml:space="preserve">相机 → [1, 3, 4]</text><text x="565" y="226" font-size="24" fill="#24745e" text-anchor="start" font-family="Noto Sans CJK SC,sans-serif" xml:space="preserve">防水 → [2, 3]</text><line x1="565" y1="260" x2="945" y2="260" stroke="#edf2f7" stroke-width="2"/><text x="565" y="317" font-size="26" fill="#c45435" text-anchor="start" font-family="Noto Sans CJK SC,sans-serif" xml:space="preserve">相交 → [3]</text><line x1="30" y1="436" x2="970" y2="436" stroke="#edf2f7" stroke-width="2"/><text x="30" y="474" font-size="21" fill="#203047" text-anchor="start" font-family="Noto Sans CJK SC,sans-serif" xml:space="preserve">文档编号用于集合求交；要判断短语邻接，还需保存词项位置。</text></svg>