<svg xmlns="http://www.w3.org/2000/svg" width="1000" height="500" viewBox="0 0 1000 500"><rect width="100%" height="100%" fill="white"/><defs><marker id="arr" markerWidth="8" markerHeight="8" refX="7" refY="4" orient="auto"><path d="M0,0 L7,4 L0,8" fill="context-stroke"/></marker></defs><text x="30" y="38" font-size="26" fill="#203047" text-anchor="start" font-family="Noto Sans CJK SC,sans-serif" xml:space="preserve">知识图谱：实体标识、类型、断言和来源一起解释事实</text><rect x="50" y="115" width="223" height="41" rx="3" fill="#2563a6" stroke="none" stroke-width="2"/><text x="60" y="143" font-size="19" fill="white" text-anchor="start" font-family="Noto Sans CJK SC,sans-serif" xml:space="preserve">主语</text><rect x="275" y="115" width="238" height="41" rx="3" fill="#2563a6" stroke="none" stroke-width="2"/><text x="285" y="143" font-size="19" fill="white" text-anchor="start" font-family="Noto Sans CJK SC,sans-serif" xml:space="preserve">谓语</text><rect x="515" y="115" width="388" height="41" rx="3" fill="#2563a6" stroke="none" stroke-width="2"/><text x="525" y="143" font-size="19" fill="white" text-anchor="start" font-family="Noto Sans CJK SC,sans-serif" xml:space="preserve">宾语</text><rect x="50" y="158" width="223" height="41" rx="3" fill="#edf2f7" stroke="none" stroke-width="2"/><text x="60" y="186" font-size="19" fill="#203047" text-anchor="start" font-family="Noto Sans CJK SC,sans-serif" xml:space="preserve">设备 A</text><rect x="275" y="158" width="238" height="41" rx="3" fill="#edf2f7" stroke="none" stroke-width="2"/><text x="285" y="186" font-size="19" fill="#203047" text-anchor="start" font-family="Noto Sans CJK SC,sans-serif" xml:space="preserve">位于</text><rect x="515" y="158" width="388" height="41" rx="3" fill="#edf2f7" stroke="none" stroke-width="2"/><text x="525" y="186" font-size="19" fill="#203047" text-anchor="start" font-family="Noto Sans CJK SC,sans-serif" xml:space="preserve">楼宇 B</text><rect x="50" y="201" width="223" height="41" rx="3" fill="#edf2f7" stroke="none" stroke-width="2"/><text x="60" y="229" font-size="19" fill="#203047" text-anchor="start" font-family="Noto Sans CJK SC,sans-serif" xml:space="preserve">设备 A</text><rect x="275" y="201" width="238" height="41" rx="3" fill="#edf2f7" stroke="none" stroke-width="2"/><text x="285" y="229" font-size="19" fill="#203047" text-anchor="start" font-family="Noto Sans CJK SC,sans-serif" xml:space="preserve">类型</text><rect x="515" y="201" width="388" height="41" rx="3" fill="#edf2f7" stroke="none" stroke-width="2"/><text x="525" y="229" font-size="19" fill="#203047" text-anchor="start" font-family="Noto Sans CJK SC,sans-serif" xml:space="preserve">泵</text><rect x="50" y="244" width="223" height="41" rx="3" fill="#edf2f7" stroke="none" stroke-width="2"/><text x="60" y="272" font-size="19" fill="#203047" text-anchor="start" font-family="Noto Sans CJK SC,sans-serif" xml:space="preserve">泵</text><rect x="275" y="244" width="238" height="41" rx="3" fill="#edf2f7" stroke="none" stroke-width="2"/><text x="285" y="272" font-size="19" fill="#203047" text-anchor="start" font-family="Noto Sans CJK SC,sans-serif" xml:space="preserve">子类</text><rect x="515" y="244" width="388" height="41" rx="3" fill="#edf2f7" stroke="none" stroke-width="2"/><text x="525" y="272" font-size="19" fill="#203047" text-anchor="start" font-family="Noto Sans CJK SC,sans-serif" xml:space="preserve">设备</text><rect x="50" y="287" width="223" height="41" rx="3" fill="#edf2f7" stroke="none" stroke-width="2"/><text x="60" y="315" font-size="19" fill="#203047" text-anchor="start" font-family="Noto Sans CJK SC,sans-serif" xml:space="preserve">设备 A</text><rect x="275" y="287" width="238" height="41" rx="3" fill="#edf2f7" stroke="none" stroke-width="2"/><text x="285" y="315" font-size="19" fill="#203047" text-anchor="start" font-family="Noto Sans CJK SC,sans-serif" xml:space="preserve">额定功率</text><rect x="515" y="287" width="388" height="41" rx="3" fill="#edf2f7" stroke="none" stroke-width="2"/><text x="525" y="315" font-size="19" fill="#203047" text-anchor="start" font-family="Noto Sans CJK SC,sans-serif" xml:space="preserve">5 kW</text><line x1="75" y1="330" x2="925" y2="330" stroke="#edf2f7" stroke-width="2"/><text x="75" y="377" font-size="23" fill="#24745e" text-anchor="start" font-family="Noto Sans CJK SC,sans-serif" xml:space="preserve">规则：泵是设备的子类 → 可推导 A 属于设备</text><line x1="30" y1="436" x2="970" y2="436" stroke="#edf2f7" stroke-width="2"/><text x="30" y="474" font-size="21" fill="#203047" text-anchor="start" font-family="Noto Sans CJK SC,sans-serif" xml:space="preserve">推导依赖规则与推理配置；同名实体是否相同，还需要身份对齐和来源。</text></svg>