<svg xmlns="http://www.w3.org/2000/svg" width="1000" height="500" viewBox="0 0 1000 500"><rect width="100%" height="100%" fill="white"/><defs><marker id="arr" markerWidth="8" markerHeight="8" refX="7" refY="4" orient="auto"><path d="M0,0 L7,4 L0,8" fill="context-stroke"/></marker></defs><text x="30" y="38" font-size="26" fill="#203047" text-anchor="start" font-family="Noto Sans CJK SC,sans-serif" xml:space="preserve">Outbox：同库提交事实与待传播记录，再异步更新投影</text><rect x="40" y="102" width="450" height="279" rx="3" fill="none" stroke="#2563a6" stroke-width="2"/><text x="65" y="140" font-size="24" fill="#2563a6" text-anchor="start" font-family="Noto Sans CJK SC,sans-serif" xml:space="preserve">一个本地事务</text><rect x="65" y="165" width="158" height="41" rx="3" fill="#2563a6" stroke="none" stroke-width="2"/><text x="75" y="193" font-size="19" fill="white" text-anchor="start" font-family="Noto Sans CJK SC,sans-serif" xml:space="preserve">对象</text><rect x="225" y="165" width="218" height="41" rx="3" fill="#2563a6" stroke="none" stroke-width="2"/><text x="235" y="193" font-size="19" fill="white" text-anchor="start" font-family="Noto Sans CJK SC,sans-serif" xml:space="preserve">版本</text><rect x="65" y="208" width="158" height="41" rx="3" fill="#edf2f7" stroke="none" stroke-width="2"/><text x="75" y="236" font-size="19" fill="#203047" text-anchor="start" font-family="Noto Sans CJK SC,sans-serif" xml:space="preserve">A</text><rect x="225" y="208" width="218" height="41" rx="3" fill="#edf2f7" stroke="none" stroke-width="2"/><text x="235" y="236" font-size="19" fill="#203047" text-anchor="start" font-family="Noto Sans CJK SC,sans-serif" xml:space="preserve">12</text><rect x="65" y="270" width="158" height="41" rx="3" fill="#2563a6" stroke="none" stroke-width="2"/><text x="75" y="298" font-size="19" fill="white" text-anchor="start" font-family="Noto Sans CJK SC,sans-serif" xml:space="preserve">Outbox ID</text><rect x="225" y="270" width="218" height="41" rx="3" fill="#2563a6" stroke="none" stroke-width="2"/><text x="235" y="298" font-size="19" fill="white" text-anchor="start" font-family="Noto Sans CJK SC,sans-serif" xml:space="preserve">源版本</text><rect x="65" y="313" width="158" height="41" rx="3" fill="#edf2f7" stroke="none" stroke-width="2"/><text x="75" y="341" font-size="19" fill="#203047" text-anchor="start" font-family="Noto Sans CJK SC,sans-serif" xml:space="preserve">E902</text><rect x="225" y="313" width="218" height="41" rx="3" fill="#edf2f7" stroke="none" stroke-width="2"/><text x="235" y="341" font-size="19" fill="#203047" text-anchor="start" font-family="Noto Sans CJK SC,sans-serif" xml:space="preserve">12</text><line x1="500" y1="288" x2="640" y2="288" stroke="#24745e" stroke-width="2" marker-end="url(#arr)"/><text x="530" y="240" font-size="20" fill="#24745e" text-anchor="start" font-family="Noto Sans CJK SC,sans-serif" xml:space="preserve">可重试传播</text><rect x="655" y="147" width="148" height="41" rx="3" fill="#2563a6" stroke="none" stroke-width="2"/><text x="665" y="175" font-size="19" fill="white" text-anchor="start" font-family="Noto Sans CJK SC,sans-serif" xml:space="preserve">投影对象</text><rect x="805" y="147" width="148" height="41" rx="3" fill="#2563a6" stroke="none" stroke-width="2"/><text x="815" y="175" font-size="19" fill="white" text-anchor="start" font-family="Noto Sans CJK SC,sans-serif" xml:space="preserve">版本</text><rect x="655" y="190" width="148" height="41" rx="3" fill="#edf2f7" stroke="none" stroke-width="2"/><text x="665" y="218" font-size="19" fill="#203047" text-anchor="start" font-family="Noto Sans CJK SC,sans-serif" xml:space="preserve">A</text><rect x="805" y="190" width="148" height="41" rx="3" fill="#edf2f7" stroke="none" stroke-width="2"/><text x="815" y="218" font-size="19" fill="#203047" text-anchor="start" font-family="Noto Sans CJK SC,sans-serif" xml:space="preserve">12</text><rect x="655" y="280" width="148" height="41" rx="3" fill="#2563a6" stroke="none" stroke-width="2"/><text x="665" y="308" font-size="19" fill="white" text-anchor="start" font-family="Noto Sans CJK SC,sans-serif" xml:space="preserve">重复事件</text><rect x="805" y="280" width="148" height="41" rx="3" fill="#2563a6" stroke="none" stroke-width="2"/><text x="815" y="308" font-size="19" fill="white" text-anchor="start" font-family="Noto Sans CJK SC,sans-serif" xml:space="preserve">处理</text><rect x="655" y="323" width="148" height="41" rx="3" fill="#edf2f7" stroke="none" stroke-width="2"/><text x="665" y="351" font-size="19" fill="#203047" text-anchor="start" font-family="Noto Sans CJK SC,sans-serif" xml:space="preserve">E902</text><rect x="805" y="323" width="148" height="41" rx="3" fill="#edf2f7" stroke="none" stroke-width="2"/><text x="815" y="351" font-size="19" fill="#203047" text-anchor="start" font-family="Noto Sans CJK SC,sans-serif" xml:space="preserve">幂等</text><line x1="30" y1="436" x2="970" y2="436" stroke="#edf2f7" stroke-width="2"/><text x="30" y="474" font-size="21" fill="#203047" text-anchor="start" font-family="Noto Sans CJK SC,sans-serif" xml:space="preserve">事件可能重复投递；投影内容与已应用版本必须采用可靠的提交协议。</text></svg>