<svg xmlns="http://www.w3.org/2000/svg" width="1100" height="470" viewBox="0 0 1100 470"><rect width="100%" height="100%" fill="white"/><defs><marker id="arr" markerWidth="9" markerHeight="9" refX="8" refY="4" orient="auto"><path d="M0,0 L8,4 L0,8" fill="context-stroke"/></marker></defs><text x="35" y="38" font-size="25" fill="#213047" text-anchor="start" font-family="Noto Sans CJK SC,Microsoft YaHei,sans-serif">轨迹对齐之后，重复地标还需要合并观测</text><circle cx="90" cy="140" r="10" fill="#2563a6" stroke="none" stroke-width="2"/><circle cx="380" cy="140" r="10" fill="#2563a6" stroke="none" stroke-width="2"/><circle cx="90" cy="330" r="10" fill="#2563a6" stroke="none" stroke-width="2"/><circle cx="380" cy="330" r="10" fill="#2563a6" stroke="none" stroke-width="2"/><line x1="90" y1="140" x2="205" y2="230" stroke="#778396" stroke-width="2"/><line x1="380" y1="140" x2="265" y2="230" stroke="#778396" stroke-width="2"/><line x1="90" y1="330" x2="205" y2="230" stroke="#778396" stroke-width="2"/><line x1="380" y1="330" x2="265" y2="230" stroke="#778396" stroke-width="2"/><path d="M205.00,216.00 L217.00,240.00 L193.00,240.00 Z" fill="#267a65" stroke="#267a65" stroke-width="2"/><path d="M265.00,216.00 L277.00,240.00 L253.00,240.00 Z" fill="#267a65" stroke="#267a65" stroke-width="2"/><circle cx="630" cy="140" r="10" fill="#2563a6" stroke="none" stroke-width="2"/><circle cx="920" cy="140" r="10" fill="#2563a6" stroke="none" stroke-width="2"/><circle cx="630" cy="330" r="10" fill="#2563a6" stroke="none" stroke-width="2"/><circle cx="920" cy="330" r="10" fill="#2563a6" stroke="none" stroke-width="2"/><line x1="630" y1="140" x2="775" y2="230" stroke="#778396" stroke-width="2"/><line x1="920" y1="140" x2="775" y2="230" stroke="#778396" stroke-width="2"/><line x1="630" y1="330" x2="775" y2="230" stroke="#778396" stroke-width="2"/><line x1="920" y1="330" x2="775" y2="230" stroke="#778396" stroke-width="2"/><path d="M775.00,216.00 L787.00,240.00 L763.00,240.00 Z" fill="#267a65" stroke="#267a65" stroke-width="2"/><text x="90" y="415" font-size="23" fill="#213047" text-anchor="start" font-family="Noto Sans CJK SC,Microsoft YaHei,sans-serif">两个地标，各自解释一段历史</text><text x="600" y="415" font-size="23" fill="#213047" text-anchor="start" font-family="Noto Sans CJK SC,Microsoft YaHei,sans-serif">一个地标，共享两段观测</text></svg>