<svg xmlns="http://www.w3.org/2000/svg" width="1100" height="470" viewBox="0 0 1100 470"><rect width="100%" height="100%" fill="white"/><defs><marker id="arr" markerWidth="9" markerHeight="9" refX="8" refY="4" orient="auto"><path d="M0,0 L8,4 L0,8" fill="context-stroke"/></marker></defs><text x="35" y="38" font-size="25" fill="#213047" text-anchor="start" font-family="Noto Sans CJK SC,Microsoft YaHei,sans-serif">VINS-Fusion：局部窗口保留测量，全局图保留关键帧关系</text><line x1="100" y1="160" x2="255" y2="160" stroke="#778396" stroke-width="2"/><line x1="255" y1="160" x2="410" y2="160" stroke="#778396" stroke-width="2"/><line x1="410" y1="160" x2="565" y2="160" stroke="#778396" stroke-width="2"/><circle cx="100" cy="160" r="10" fill="#2563a6" stroke="none" stroke-width="2"/><text x="100" y="193" font-size="17" fill="#213047" text-anchor="middle" font-family="Noto Sans CJK SC,Microsoft YaHei,sans-serif">0</text><circle cx="255" cy="160" r="10" fill="#2563a6" stroke="none" stroke-width="2"/><text x="255" y="193" font-size="17" fill="#213047" text-anchor="middle" font-family="Noto Sans CJK SC,Microsoft YaHei,sans-serif">1</text><circle cx="410" cy="160" r="10" fill="#2563a6" stroke="none" stroke-width="2"/><text x="410" y="193" font-size="17" fill="#213047" text-anchor="middle" font-family="Noto Sans CJK SC,Microsoft YaHei,sans-serif">2</text><circle cx="565" cy="160" r="10" fill="#2563a6" stroke="none" stroke-width="2"/><text x="565" y="193" font-size="17" fill="#213047" text-anchor="middle" font-family="Noto Sans CJK SC,Microsoft YaHei,sans-serif">3</text><rect x="195" y="245" width="18" height="18" rx="0" fill="#b78c2c" stroke="none" stroke-width="2"/><line x1="204" y1="245" x2="100" y2="170" stroke="#b78c2c" stroke-width="2"/><line x1="204" y1="245" x2="255" y2="170" stroke="#b78c2c" stroke-width="2"/><rect x="350" y="245" width="18" height="18" rx="0" fill="#b78c2c" stroke="none" stroke-width="2"/><line x1="359" y1="245" x2="255" y2="170" stroke="#b78c2c" stroke-width="2"/><line x1="359" y1="245" x2="410" y2="170" stroke="#b78c2c" stroke-width="2"/><rect x="505" y="245" width="18" height="18" rx="0" fill="#b78c2c" stroke="none" stroke-width="2"/><line x1="514" y1="245" x2="410" y2="170" stroke="#b78c2c" stroke-width="2"/><line x1="514" y1="245" x2="565" y2="170" stroke="#b78c2c" stroke-width="2"/><line x1="660" y1="340" x2="770" y2="150" stroke="#778396" stroke-width="2"/><line x1="770" y1="150" x2="960" y2="165" stroke="#778396" stroke-width="2"/><line x1="960" y1="165" x2="995" y2="335" stroke="#778396" stroke-width="2"/><line x1="995" y1="335" x2="825" y2="375" stroke="#778396" stroke-width="2"/><circle cx="660" cy="340" r="10" fill="#267a65" stroke="none" stroke-width="2"/><text x="660" y="373" font-size="17" fill="#213047" text-anchor="middle" font-family="Noto Sans CJK SC,Microsoft YaHei,sans-serif">0</text><circle cx="770" cy="150" r="10" fill="#267a65" stroke="none" stroke-width="2"/><text x="770" y="183" font-size="17" fill="#213047" text-anchor="middle" font-family="Noto Sans CJK SC,Microsoft YaHei,sans-serif">1</text><circle cx="960" cy="165" r="10" fill="#267a65" stroke="none" stroke-width="2"/><text x="960" y="198" font-size="17" fill="#213047" text-anchor="middle" font-family="Noto Sans CJK SC,Microsoft YaHei,sans-serif">2</text><circle cx="995" cy="335" r="10" fill="#267a65" stroke="none" stroke-width="2"/><text x="995" y="368" font-size="17" fill="#213047" text-anchor="middle" font-family="Noto Sans CJK SC,Microsoft YaHei,sans-serif">3</text><circle cx="825" cy="375" r="10" fill="#267a65" stroke="none" stroke-width="2"/><text x="825" y="408" font-size="17" fill="#213047" text-anchor="middle" font-family="Noto Sans CJK SC,Microsoft YaHei,sans-serif">4</text><line x1="660" y1="340" x2="825" y2="375" stroke="#ce593e" stroke-width="4"/><text x="60" y="408" font-size="22" fill="#213047" text-anchor="start" font-family="Noto Sans CJK SC,Microsoft YaHei,sans-serif">VIO：像素 + IMU + 边缘化先验</text><text x="665" y="440" font-size="22" fill="#213047" text-anchor="start" font-family="Noto Sans CJK SC,Microsoft YaHei,sans-serif">全局图：相对位姿 + 回环</text></svg>