<svg xmlns="http://www.w3.org/2000/svg" width="1100" height="470" viewBox="0 0 1100 470"><rect width="100%" height="100%" fill="white"/><defs><marker id="arr" markerWidth="9" markerHeight="9" refX="8" refY="4" orient="auto"><path d="M0,0 L8,4 L0,8" fill="context-stroke"/></marker></defs><text x="35" y="38" font-size="25" fill="#213047" text-anchor="start" font-family="Noto Sans CJK SC,Microsoft YaHei,sans-serif">重复窗格的局部外观相似，上下文提供额外关系</text><rect x="65" y="110" width="45" height="45" rx="0" fill="#dce8ef" stroke="#2563a6" stroke-width="2"/><circle cx="87" cy="132" r="4" fill="#ce593e" stroke="none" stroke-width="2"/><rect x="140" y="110" width="45" height="45" rx="0" fill="#dce8ef" stroke="#2563a6" stroke-width="2"/><circle cx="162" cy="132" r="4" fill="#ce593e" stroke="none" stroke-width="2"/><rect x="215" y="110" width="45" height="45" rx="0" fill="#dce8ef" stroke="#2563a6" stroke-width="2"/><circle cx="237" cy="132" r="4" fill="#ce593e" stroke="none" stroke-width="2"/><rect x="290" y="110" width="45" height="45" rx="0" fill="#dce8ef" stroke="#2563a6" stroke-width="2"/><circle cx="312" cy="132" r="4" fill="#ce593e" stroke="none" stroke-width="2"/><rect x="65" y="187" width="45" height="45" rx="0" fill="#dce8ef" stroke="#2563a6" stroke-width="2"/><circle cx="87" cy="209" r="4" fill="#ce593e" stroke="none" stroke-width="2"/><rect x="140" y="187" width="45" height="45" rx="0" fill="#dce8ef" stroke="#2563a6" stroke-width="2"/><circle cx="162" cy="209" r="4" fill="#ce593e" stroke="none" stroke-width="2"/><rect x="215" y="187" width="45" height="45" rx="0" fill="#dce8ef" stroke="#2563a6" stroke-width="2"/><circle cx="237" cy="209" r="4" fill="#ce593e" stroke="none" stroke-width="2"/><rect x="290" y="187" width="45" height="45" rx="0" fill="#dce8ef" stroke="#2563a6" stroke-width="2"/><circle cx="312" cy="209" r="4" fill="#ce593e" stroke="none" stroke-width="2"/><rect x="65" y="264" width="45" height="45" rx="0" fill="#dce8ef" stroke="#2563a6" stroke-width="2"/><circle cx="87" cy="286" r="4" fill="#ce593e" stroke="none" stroke-width="2"/><rect x="140" y="264" width="45" height="45" rx="0" fill="#dce8ef" stroke="#2563a6" stroke-width="2"/><circle cx="162" cy="286" r="4" fill="#ce593e" stroke="none" stroke-width="2"/><rect x="215" y="264" width="45" height="45" rx="0" fill="#dce8ef" stroke="#2563a6" stroke-width="2"/><circle cx="237" cy="286" r="4" fill="#ce593e" stroke="none" stroke-width="2"/><rect x="290" y="264" width="45" height="45" rx="0" fill="#dce8ef" stroke="#2563a6" stroke-width="2"/><circle cx="312" cy="286" r="4" fill="#ce593e" stroke="none" stroke-width="2"/><rect x="610" y="110" width="45" height="45" rx="0" fill="#dce8ef" stroke="#2563a6" stroke-width="2"/><circle cx="632" cy="132" r="4" fill="#ce593e" stroke="none" stroke-width="2"/><rect x="685" y="110" width="45" height="45" rx="0" fill="#dce8ef" stroke="#2563a6" stroke-width="2"/><circle cx="707" cy="132" r="4" fill="#ce593e" stroke="none" stroke-width="2"/><rect x="760" y="110" width="45" height="45" rx="0" fill="#dce8ef" stroke="#2563a6" stroke-width="2"/><circle cx="782" cy="132" r="4" fill="#ce593e" stroke="none" stroke-width="2"/><rect x="835" y="110" width="45" height="45" rx="0" fill="#dce8ef" stroke="#2563a6" stroke-width="2"/><circle cx="857" cy="132" r="4" fill="#ce593e" stroke="none" stroke-width="2"/><rect x="610" y="187" width="45" height="45" rx="0" fill="#dce8ef" stroke="#2563a6" stroke-width="2"/><circle cx="632" cy="209" r="4" fill="#ce593e" stroke="none" stroke-width="2"/><rect x="685" y="187" width="45" height="45" rx="0" fill="#dce8ef" stroke="#2563a6" stroke-width="2"/><circle cx="707" cy="209" r="4" fill="#ce593e" stroke="none" stroke-width="2"/><rect x="760" y="187" width="45" height="45" rx="0" fill="#dce8ef" stroke="#2563a6" stroke-width="2"/><circle cx="782" cy="209" r="4" fill="#ce593e" stroke="none" stroke-width="2"/><rect x="835" y="187" width="45" height="45" rx="0" fill="#dce8ef" stroke="#2563a6" stroke-width="2"/><circle cx="857" cy="209" r="4" fill="#ce593e" stroke="none" stroke-width="2"/><rect x="610" y="264" width="45" height="45" rx="0" fill="#dce8ef" stroke="#2563a6" stroke-width="2"/><circle cx="632" cy="286" r="4" fill="#ce593e" stroke="none" stroke-width="2"/><rect x="685" y="264" width="45" height="45" rx="0" fill="#dce8ef" stroke="#2563a6" stroke-width="2"/><circle cx="707" cy="286" r="4" fill="#ce593e" stroke="none" stroke-width="2"/><rect x="760" y="264" width="45" height="45" rx="0" fill="#dce8ef" stroke="#2563a6" stroke-width="2"/><circle cx="782" cy="286" r="4" fill="#ce593e" stroke="none" stroke-width="2"/><rect x="835" y="264" width="45" height="45" rx="0" fill="#dce8ef" stroke="#2563a6" stroke-width="2"/><circle cx="857" cy="286" r="4" fill="#ce593e" stroke="none" stroke-width="2"/><rect x="65" y="285" width="45" height="22" rx="0" fill="#b78c2c" stroke="none" stroke-width="2"/><rect x="610" y="285" width="45" height="22" rx="0" fill="#b78c2c" stroke="none" stroke-width="2"/><line x1="237" y1="209" x2="632" y2="209" stroke="#ce593e" stroke-width="1" stroke-dasharray="7 5"/><line x1="237" y1="209" x2="707" y2="209" stroke="#ce593e" stroke-width="1" stroke-dasharray="7 5"/><line x1="237" y1="209" x2="782" y2="209" stroke="#ce593e" stroke-width="1" stroke-dasharray="7 5"/><line x1="237" y1="209" x2="857" y2="209" stroke="#ce593e" stroke-width="1" stroke-dasharray="7 5"/><line x1="87" y1="300" x2="632" y2="300" stroke="#267a65" stroke-width="3" marker-end="url(#arr)"/><text x="65" y="398" font-size="23" fill="#213047" text-anchor="start" font-family="Noto Sans CJK SC,Microsoft YaHei,sans-serif">局部：多个候选外观近似</text><text x="610" y="398" font-size="23" fill="#213047" text-anchor="start" font-family="Noto Sans CJK SC,Microsoft YaHei,sans-serif">上下文：门的位置帮助消歧</text></svg>